<svg width="1225.4375px" height="200px" xmlns="http://www.w3.org/2000/svg" viewBox="-362.71875 -25 1225.4375 200" style="background: rgba(0, 0, 0, 0);" preserveAspectRatio="xMidYMid"><defs><linearGradient id="editing-shiny-gradient" x1="0.04322727117869957" x2="0.9567727288213004" y1="0.2966316784620999" y2="0.7033683215379001" gradientUnits="objectBoundingBox"><stop offset="0.0" stop-color="#f07fee"></stop><stop offset="0.5" stop-color="#f73ad6"></stop><stop offset="1.0" stop-color="#ff00f9"></stop></linearGradient><linearGradient id="editing-shiny-gradient2" x1="0" x2="0" y1="0" y2="1"><stop offset="0.2" stop-color="#fff" stop-opacity="0.8"></stop><stop offset="0.8" stop-color="#fff" stop-opacity="0"></stop></linearGradient><filter id="editing-shiny2" x="-100%" y="-100%" width="300%" height="300%"><feMorphology operator="erode" radius="2"></feMorphology></filter><filter id="editing-shiny" x="-100%" y="-100%" width="300%" height="300%"><feFlood flood-color="#fff" result="flood"></feFlood><feConvolveMatrix in="SourceGraphic" result="conv" order="8,8" divisor="1" kernelMatrix="0 0 0 0 0 0 0 0 0 0 0 1 1 0 0 0 0 0 0 1 1 0 0 0 0 0 1 0 0 1 0 0 0 0 1 0 0 1 0 0 0 1 0 0 0 0 1 0 0 1 1 0 0 1 1 0 0 0 0 1 1 0 0 0 "></feConvolveMatrix><feOffset dx="0" dy="4" in="conv" result="offset"></feOffset><feComposite operator="in" in="flood" in2="offset" result="comp"></feComposite><feGaussianBlur in="offset" stdDeviation="3" result="shadow"></feGaussianBlur><feColorMatrix in="shadow" type="matrix" values="0.7 0 0 0 0  0 0.7 0 0 0  0 0 0.7 0 0  0 0 0 0.3 0" result="dark-shadow"></feColorMatrix><feOffset dx="0" dy="4" in="dark-shadow" result="offset-shadow"></feOffset><feOffset dx="0" dy="2" in="conv" result="offset-2"></feOffset><feComposite operator="out" in="offset" in2="offset-2" result="edge-diff"></feComposite><feGaussianBlur in="edge-diff" stdDeviation="1" result="edge-blur"></feGaussianBlur><feColorMatrix in="edge-blur" result="edge-shadow" type="matrix" values="0 0 0 0 0  0 0 0 0 0  0 0 0 0 0  0 0 0 0.5 0"></feColorMatrix><feComposite operator="in" in="edge-shadow" in2="offset" result="edge-shadow-in"></feComposite><feOffset dx="0" dy="1" in="edge-shadow-in" result="edge-shadow-final"></feOffset><feMerge result="out"><feMergeNode in="offset-shadow"></feMergeNode><feMergeNode in="comp"></feMergeNode><feMergeNode in="edge-shadow-final"></feMergeNode><feMergeNode in="SourceGraphic"></feMergeNode></feMerge></filter></defs><g filter="url(#editing-shiny)"><g transform="translate(-194.0850157737732, 128.00999927520752)"><path d="M4.10-16.87L4.10-16.87L4.10-16.87Q4.10-21.32 5.24-27.02L5.24-27.02L14.48-75.24L39.67-75.24L30.55-26.68L30.55-26.68Q29.53-21.32 29.53-17.39L29.53-17.39L29.53-17.39Q29.53-13.45 31.18-11.40L31.18-11.40L31.18-11.40Q32.83-9.35 35.91-9.35L35.91-9.35L35.91-9.35Q38.99-9.35 40.93-10.15L40.93-10.15L40.93-10.15Q42.86-10.94 44.46-12.88L44.46-12.88L44.46-12.88Q47.54-16.76 49.48-26.68L49.48-26.68L58.71-75.24L75.92-75.24L66.80-26.79L66.80-26.79Q63.61-10.60 54.83-4.10L54.83-4.10L54.83-4.10Q46.28 2.28 29.41 2.28L29.41 2.28L29.41 2.28Q16.76 2.28 10.03-3.19L10.03-3.19L10.03-3.19Q4.10-7.98 4.10-16.87ZM131.33-7.81L131.33-7.81L131.33-7.81Q126.54-2.96 119.99-0.34L119.99-0.34L119.99-0.34Q113.43 2.28 106.93 2.28L106.93 2.28L106.93 2.28Q100.43 2.28 98.15 1.14L98.15 1.14L94.62 20.52L71.48 22.80L87.21-58.14L105.79-60.08L104.31-52.21L104.31-52.21Q109.10-60.31 119.02-60.31L119.02-60.31L119.02-60.31Q130.19-60.31 136.12-53.12L136.12-53.12L136.12-53.12Q141.36-46.63 141.36-36.71L141.36-36.71L141.36-36.71Q141.36-26.79 138.74-19.72L138.74-19.72L138.74-19.72Q136.12-12.65 131.33-7.81ZM105.56-39.79L99.52-6.38L99.52-6.38Q101.92-4.33 104.88-4.33L104.88-4.33L104.88-4.33Q107.84-4.33 109.55-5.47L109.55-5.47L109.55-5.47Q111.26-6.61 112.52-8.89L112.52-8.89L112.52-8.89Q115.94-15.05 118.67-33.74L118.67-33.74L118.67-33.74Q119.47-39.22 119.47-44.57L119.47-44.57L119.47-44.57Q119.47-49.93 118.28-51.64L118.28-51.64L118.28-51.64Q117.08-53.35 114.80-53.35L114.80-53.35L114.80-53.35Q107.84-53.35 105.56-39.79L105.56-39.79ZM204.17-47.42L204.17-47.42L204.17-47.42Q204.17-42.64 200.18-39.67L200.18-39.67L200.18-39.67Q196.19-36.71 189.70-36.71L189.70-36.71L189.70-36.71Q186.96-36.71 185.36-37.51L185.36-37.51L185.36-37.51Q186.62-40.47 187.02-44.18L187.02-44.18L187.02-44.18Q187.42-47.88 187.42-48.91L187.42-48.91L187.42-48.91Q187.42-53.69 184.11-53.69L184.11-53.69L184.11-53.69Q181.83-53.69 179.26-50.84L179.26-50.84L179.26-50.84Q176.70-47.99 174.53-43.55L174.53-43.55L174.53-43.55Q169.75-33.29 169.75-22.91L169.75-22.91L169.75-22.91Q169.75-17.21 171.91-14.65L171.91-14.65L171.91-14.65Q174.08-12.08 178.87-12.08L178.87-12.08L178.87-12.08Q185.48-12.08 190.72-17.56L190.72-17.56L190.72-17.56Q192.20-19.27 193.00-21.20L193.00-21.20L193.00-21.20Q197.33-18.92 197.33-12.65L197.33-12.65L197.33-12.65Q197.33-6.27 190.27-2.05L190.27-2.05L190.27-2.05Q182.97 2.28 171.34 2.28L171.34 2.28L171.34 2.28Q148.20 2.28 148.20-22.23L148.20-22.23L148.20-22.23Q148.20-40.13 158.35-50.39L158.35-50.39L158.35-50.39Q168.15-60.42 186.16-60.42L186.16-60.42L186.16-60.42Q204.17-60.42 204.17-47.42ZM232.10 2.28L232.10 2.28L232.10 2.28Q207.02 2.28 207.02-21.32L207.02-21.32L207.02-21.32Q207.02-38.08 216.26-48.91L216.26-48.91L216.26-48.91Q226.06-60.42 243.05-60.42L243.05-60.42L243.05-60.42Q255.36-60.42 261.63-54.72L261.63-54.72L261.63-54.72Q267.90-49.02 267.90-37.05L267.90-37.05L267.90-37.05Q267.90-18.81 258.10-8.21L258.10-8.21L258.10-8.21Q248.52 2.28 232.10 2.28ZM235.07-47.31L235.07-47.31L235.07-47.31Q233.70-44.23 232.62-39.62L232.62-39.62L232.62-39.62Q231.53-35.00 230.17-27.70L230.17-27.70L230.17-27.70Q228.80-20.41 228.80-11.40L228.80-11.40L228.80-11.40Q228.80-8.44 229.77-6.50L229.77-6.50L229.77-6.50Q230.74-4.56 233.36-4.56L233.36-4.56L233.36-4.56Q235.98-4.56 237.63-5.81L237.63-5.81L237.63-5.81Q239.29-7.07 240.54-10.03L240.54-10.03L240.54-10.03Q242.82-15.28 244.64-25.02L244.64-25.02L244.64-25.02Q246.47-34.77 246.64-38.99L246.64-38.99L246.64-38.99Q246.81-43.21 246.81-46.34L246.81-46.34L246.81-46.34Q246.81-49.48 245.90-51.53L245.90-51.53L245.90-51.53Q244.99-53.58 242.42-53.58L242.42-53.58L242.42-53.58Q239.86-53.58 238.15-51.98L238.15-51.98L238.15-51.98Q236.44-50.39 235.07-47.31ZM356.71 2.28L356.71 2.28L356.71 2.28Q342.91 2.28 342.91-8.44L342.91-8.44L342.91-8.44Q342.91-13.11 344.91-22.17L344.91-22.17L344.91-22.17Q346.90-31.24 347.59-34.88L347.59-34.88L347.59-34.88Q349.18-43.21 349.18-45.83L349.18-45.83L349.18-45.83Q349.18-51.64 344.85-51.64L344.85-51.64L344.85-51.64Q342-51.64 339.26-47.71L339.26-47.71L339.26-47.71Q336.53-43.78 335.27-35.91L335.27-35.91L328.21 0L305.98 2.28L312.13-28.73L312.13-28.73Q313.16-33.86 314.07-39.67L314.07-39.67L314.07-39.67Q314.98-45.49 314.98-46.40L314.98-46.40L314.98-46.40Q314.98-51.64 311.11-51.64L311.11-51.64L311.11-51.64Q308.48-51.64 305.63-47.77L305.63-47.77L305.63-47.77Q302.78-43.89 301.19-35.91L301.19-35.91L294.23 0L271.78 2.28L283.75-58.14L302.33-60.42L300.39-48.91L300.39-48.91Q303.35-55.06 308.83-57.74L308.83-57.74L308.83-57.74Q314.30-60.42 322.85-60.42L322.85-60.42L322.85-60.42Q327.75-60.42 330.94-58.03L330.94-58.03L330.94-58.03Q334.13-55.63 335.16-51.76L335.16-51.76L335.16-51.76Q337.10-55.75 342.06-58.08L342.06-58.08L342.06-58.08Q347.02-60.42 353.12-60.42L353.12-60.42L353.12-60.42Q359.21-60.42 362.24-59.11L362.24-59.11L362.24-59.11Q365.26-57.80 367.08-55.63L367.08-55.63L367.08-55.63Q370.16-51.64 370.16-44.35L370.16-44.35L370.16-44.35Q370.16-37.16 367.08-22.23L367.08-22.23L367.08-22.23Q365.48-14.93 365.48-12.26L365.48-12.26L365.48-12.26Q365.48-9.58 367.02-7.98L367.02-7.98L367.02-7.98Q368.56-6.38 370.84-6.16L370.84-6.16L370.84-6.16Q369.70-2.28 365.77 0L365.77 0L365.77 0Q361.84 2.28 356.71 2.28ZM406.98-6.27L406.98-6.27L406.98-6.27Q403.45 2.28 392.16 2.28L392.16 2.28L392.16 2.28Q386.35 2.28 382.70-1.71L382.70-1.71L382.70-1.71Q379.62-5.24 379.62-8.78L379.62-8.78L379.62-8.78Q379.62-18.01 383.84-36.02L383.84-36.02L388.06-58.14L411.20-60.42L404.24-24.40L404.24-24.40Q402.31-15.96 402.31-13.00L402.31-13.00L402.31-13.00Q402.31-6.50 406.98-6.27ZM390.11-73.99L390.11-73.99L390.11-73.99Q390.11-78.43 393.81-80.83L393.81-80.83L393.81-80.83Q397.52-83.22 402.88-83.22L402.88-83.22L402.88-83.22Q408.23-83.22 411.48-80.83L411.48-80.83L411.48-80.83Q414.73-78.43 414.73-73.99L414.73-73.99L414.73-73.99Q414.73-69.54 411.14-67.26L411.14-67.26L411.14-67.26Q407.55-64.98 402.19-64.98L402.19-64.98L402.19-64.98Q396.83-64.98 393.47-67.26L393.47-67.26L393.47-67.26Q390.11-69.54 390.11-73.99ZM464.89 2.28L464.89 2.28L464.89 2.28Q451.10 2.28 451.10-8.44L451.10-8.44L451.10-8.44Q451.21-11.40 452.12-16.42L452.12-16.42L454.18-26.90L454.18-26.90Q457.25-41.72 457.25-45.03L457.25-45.03L457.25-45.03Q457.25-51.64 453.38-51.64L453.38-51.64L453.38-51.64Q446.88-51.64 443.46-34.66L443.46-34.66L436.73 0L413.82 2.28L425.68-58.25L444.37-60.42L442.55-49.25L442.55-49.25Q447.91-60.42 464.32-60.42L464.32-60.42L464.32-60.42Q472.30-60.42 475.67-57.06L475.67-57.06L475.67-57.06Q479.03-53.69 479.03-46.17L479.03-46.17L479.03-46.17Q479.03-39.10 475.38-22.57L475.38-22.57L475.38-22.57Q473.67-15.16 473.67-12.37L473.67-12.37L473.67-12.37Q473.67-9.58 475.21-7.98L475.21-7.98L475.21-7.98Q476.75-6.38 479.03-6.16L479.03-6.16L479.03-6.16Q477.89-2.28 473.96 0L473.96 0L473.96 0Q470.02 2.28 464.89 2.28ZM496.24-47.65L496.24-47.65L496.24-47.65Q500.12-53.12 505.99-56.77L505.99-56.77L505.99-56.77Q511.86-60.42 519.04-60.42L519.04-60.42L519.04-60.42Q526.22-60.42 529.64-58.14L529.64-58.14L551.99-60.42L544.24-16.64L544.24-16.64Q540.25 5.70 531.81 14.48L531.81 14.48L531.81 14.48Q523.72 22.80 507.98 22.80L507.98 22.80L507.98 22.80Q496.01 22.80 489.17 19.04L489.17 19.04L489.17 19.04Q482.33 15.28 482.33 9.01L482.33 9.01L482.33 9.01Q482.33 4.33 485.87 1.65L485.87 1.65L485.87 1.65Q489.40-1.03 494.87-1.03L494.87-1.03L494.87-1.03Q499.66-1.03 503.31 1.14L503.31 1.14L503.31 1.14Q505.48 2.28 506.50 3.88L506.50 3.88L506.50 3.88Q503.88 6.16 503.88 9.92L503.88 9.92L503.88 9.92Q503.88 14.82 508.44 14.82L508.44 14.82L508.44 14.82Q516.08 14.82 520.41-3.19L520.41-3.19L520.41-3.19Q521.66-8.09 522.69-13.00L522.69-13.00L522.69-13.00Q517.56-6.73 505.93-6.73L505.93-6.73L505.93-6.73Q497.84-6.73 493.16-10.60L493.16-10.60L493.16-10.60Q488.49-14.48 488.49-23.60L488.49-23.60L488.49-23.60Q488.49-29.30 490.43-35.74L490.43-35.74L490.43-35.74Q492.37-42.18 496.24-47.65ZM511.06-23.26L511.06-23.26L511.06-23.26Q511.06-15.50 515.05-15.50L515.05-15.50L515.05-15.50Q517.79-15.50 520.41-18.47L520.41-18.47L520.41-18.47Q522.46-20.86 523.26-24.40L523.26-24.40L529.07-53.69L529.07-53.69Q528.50-53.81 527.93-54.04L527.93-54.04L527.93-54.04Q526.79-54.49 525.31-54.49L525.31-54.49L525.31-54.49Q518.36-54.49 514.25-43.09L514.25-43.09L514.25-43.09Q511.06-34.20 511.06-23.26ZM589.04-55.52L589.04-55.52L589.04-55.52Q585.16-58.48 585.16-64.81L585.16-64.81L585.16-64.81Q585.16-71.14 589.32-74.44L589.32-74.44L589.32-74.44Q593.48-77.75 600.67-77.75L600.67-77.75L600.67-77.75Q605.23-77.75 616.06-76.15L616.06-76.15L623.81-75.01L623.81-75.01Q627.68-74.56 631.73-74.56L631.73-74.56L631.73-74.56Q635.78-74.56 638.51-76.27L638.51-76.27L638.51-76.27Q642.62-72.62 642.62-67.37L642.62-67.37L642.62-67.37Q642.62-62.13 637.94-58.37L637.94-58.37L637.94-58.37Q633.16-54.38 627.00-54.38L627.00-54.38L627.00-54.38Q624.04-54.38 619.25-55.18L619.25-55.18L619.25-55.18Q613.66-37.62 613.66-25.42L613.66-25.42L613.66-25.42Q613.66-13.22 619.82-6.84L619.82-6.84L619.82-6.84Q616.97-1.71 612.75 0.29L612.75 0.29L612.75 0.29Q608.53 2.28 602.21 2.28L602.21 2.28L602.21 2.28Q595.88 2.28 591.95-1.20L591.95-1.20L591.95-1.20Q588.01-4.67 588.01-11.86L588.01-11.86L588.01-11.86Q588.01-20.18 592.57-33.86L592.57-33.86L592.57-33.86Q597.13-47.42 603.97-57.80L603.97-57.80L603.97-57.80Q600.67-58.14 597.25-58.14L597.25-58.14L597.25-58.14Q590.18-58.14 589.04-55.52ZM658.58 2.28L658.58 2.28L658.58 2.28Q633.50 2.28 633.50-21.32L633.50-21.32L633.50-21.32Q633.50-38.08 642.73-48.91L642.73-48.91L642.73-48.91Q652.54-60.42 669.52-60.42L669.52-60.42L669.52-60.42Q681.83-60.42 688.10-54.72L688.10-54.72L688.10-54.72Q694.37-49.02 694.37-37.05L694.37-37.05L694.37-37.05Q694.37-18.81 684.57-8.21L684.57-8.21L684.57-8.21Q674.99 2.28 658.58 2.28ZM661.54-47.31L661.54-47.31L661.54-47.31Q660.17-44.23 659.09-39.62L659.09-39.62L659.09-39.62Q658.01-35.00 656.64-27.70L656.64-27.70L656.64-27.70Q655.27-20.41 655.27-11.40L655.27-11.40L655.27-11.40Q655.27-8.44 656.24-6.50L656.24-6.50L656.24-6.50Q657.21-4.56 659.83-4.56L659.83-4.56L659.83-4.56Q662.45-4.56 664.11-5.81L664.11-5.81L664.11-5.81Q665.76-7.07 667.01-10.03L667.01-10.03L667.01-10.03Q669.29-15.28 671.12-25.02L671.12-25.02L671.12-25.02Q672.94-34.77 673.11-38.99L673.11-38.99L673.11-38.99Q673.28-43.21 673.28-46.34L673.28-46.34L673.28-46.34Q673.28-49.48 672.37-51.53L672.37-51.53L672.37-51.53Q671.46-53.58 668.90-53.58L668.90-53.58L668.90-53.58Q666.33-53.58 664.62-51.98L664.62-51.98L664.62-51.98Q662.91-50.39 661.54-47.31ZM737.69-4.79L737.69-4.79L737.69-4.79Q732.22 2.28 718.66 2.28L718.66 2.28L718.66 2.28Q711.59 2.28 706.46-2.00L706.46-2.00L706.46-2.00Q701.33-6.27 701.33-12.43L701.33-12.43L701.33-12.43Q701.33-15.85 701.67-17.56L701.67-17.56L709.31-58.14L732.45-60.42L724.13-16.42L724.13-16.42Q723.67-13.91 723.67-12.43L723.67-12.43L723.67-12.43Q723.67-5.81 727.66-5.81L727.66-5.81L727.66-5.81Q732.11-5.81 735.30-11.86L735.30-11.86L735.30-11.86Q736.33-13.79 736.78-16.30L736.78-16.30L744.88-58.14L767.33-60.42L758.90-15.96L758.90-15.96Q758.56-14.25 758.56-12.43L758.56-12.43L758.56-12.43Q758.56-10.60 759.58-8.61L759.58-8.61L759.58-8.61Q760.61-6.61 763.91-6.16L763.91-6.16L763.91-6.16Q763.23-3.42 760.84-1.60L760.84-1.60L760.84-1.60Q755.82 2.28 750.41 2.28L750.41 2.28L750.41 2.28Q744.99 2.28 741.80 0.34L741.80 0.34L741.80 0.34Q738.61-1.60 737.69-4.79ZM809.17-32.03L809.17-32.03L809.17-32.03Q813.28-39.33 813.28-46.74L813.28-46.74L813.28-46.74Q813.28-51.64 809.74-51.64L809.74-51.64L809.74-51.64Q807.01-51.64 804.16-46.97L804.16-46.97L804.16-46.97Q801.19-42.29 800.28-36.25L800.28-36.25L794.35 0L770.75 2.28L782.38-58.14L801.19-60.42L799.14-48.91L799.14-48.91Q804.73-60.42 817.27-60.42L817.27-60.42L817.27-60.42Q823.88-60.42 827.47-57L827.47-57L827.47-57Q831.06-53.58 831.06-46.57L831.06-46.57L831.06-46.57Q831.06-39.56 826.44-35.11L826.44-35.11L826.44-35.11Q821.83-30.67 813.96-30.67L813.96-30.67L813.96-30.67Q810.54-30.67 809.17-32.03ZM866.97-40.01L866.97-40.01L866.97-40.01Q868.57-44.23 868.57-47.88L868.57-47.88L868.57-47.88Q868.57-54.61 863.09-54.61L863.09-54.61L863.09-54.61Q860.24-54.61 857.91-52.04L857.91-52.04L857.91-52.04Q855.57-49.48 855.57-46.28L855.57-46.28L855.57-46.28Q855.57-44.00 857.39-42.18L857.39-42.18L857.39-42.18Q860.02-39.67 866.74-35.57L866.74-35.57L866.74-35.57Q873.47-31.46 876.03-28.10L876.03-28.10L876.03-28.10Q878.60-24.74 878.60-20.12L878.60-20.12L878.60-20.12Q878.60-15.50 876.38-11.29L876.38-11.29L876.38-11.29Q874.15-7.07 870.16-4.10L870.16-4.10L870.16-4.10Q861.61 2.28 847.93 2.28L847.93 2.28L847.93 2.28Q840.52 2.28 834.82-1.60L834.82-1.60L834.82-1.60Q829.12-5.36 829.12-9.80L829.12-9.80L829.12-9.80Q829.12-14.25 832.37-16.87L832.37-16.87L832.37-16.87Q835.62-19.49 840.41-19.49L840.41-19.49L840.41-19.49Q845.20-19.49 848.16-17.67L848.16-17.67L848.16-17.67Q846.68-13.91 846.68-11.40L846.68-11.40L846.68-11.40Q846.68-3.88 853.06-3.88L853.06-3.88L853.06-3.88Q855.80-3.88 857.62-5.59L857.62-5.59L857.62-5.59Q859.45-7.30 859.45-10.26L859.45-10.26L859.45-10.26Q859.45-16.07 849.64-22.23L849.64-22.23L849.64-22.23Q841.66-27.47 839.84-29.53L839.84-29.53L839.84-29.53Q836.76-33.17 836.76-37.73L836.76-37.73L836.76-37.73Q836.76-42.29 838.93-46.63L838.93-46.63L838.93-46.63Q841.09-50.96 845.08-54.04L845.08-54.04L845.08-54.04Q853.40-60.42 867.88-60.42L867.88-60.42L867.88-60.42Q875.29-60.42 879.68-57.46L879.68-57.46L879.68-57.46Q884.07-54.49 884.07-49.48L884.07-49.48L884.07-49.48Q884.07-44.46 881.05-41.61L881.05-41.61L881.05-41.61Q878.03-38.76 872.56-38.76L872.56-38.76L872.56-38.76Q868.79-38.76 866.97-40.01Z" fill="url(#editing-shiny-gradient)"></path></g></g><g filter="url(#editing-shiny2)"><g transform="translate(-194.0850157737732, 128.01000213623047)"><path d="M4.10-16.87L4.10-16.87L4.10-16.87Q4.10-21.32 5.24-27.02L5.24-27.02L14.48-75.24L39.67-75.24L30.55-26.68L30.55-26.68Q29.53-21.32 29.53-17.39L29.53-17.39L29.53-17.39Q29.53-13.45 31.18-11.40L31.18-11.40L31.18-11.40Q32.83-9.35 35.91-9.35L35.91-9.35L35.91-9.35Q38.99-9.35 40.93-10.15L40.93-10.15L40.93-10.15Q42.86-10.94 44.46-12.88L44.46-12.88L44.46-12.88Q47.54-16.76 49.48-26.68L49.48-26.68L58.71-75.24L75.92-75.24L66.80-26.79L66.80-26.79Q63.61-10.60 54.83-4.10L54.83-4.10L54.83-4.10Q46.28 2.28 29.41 2.28L29.41 2.28L29.41 2.28Q16.76 2.28 10.03-3.19L10.03-3.19L10.03-3.19Q4.10-7.98 4.10-16.87ZM131.33-7.81L131.33-7.81L131.33-7.81Q126.54-2.96 119.99-0.34L119.99-0.34L119.99-0.34Q113.43 2.28 106.93 2.28L106.93 2.28L106.93 2.28Q100.43 2.28 98.15 1.14L98.15 1.14L94.62 20.52L71.48 22.80L87.21-58.14L105.79-60.08L104.31-52.21L104.31-52.21Q109.10-60.31 119.02-60.31L119.02-60.31L119.02-60.31Q130.19-60.31 136.12-53.12L136.12-53.12L136.12-53.12Q141.36-46.63 141.36-36.71L141.36-36.71L141.36-36.71Q141.36-26.79 138.74-19.72L138.74-19.72L138.74-19.72Q136.12-12.65 131.33-7.81ZM105.56-39.79L99.52-6.38L99.52-6.38Q101.92-4.33 104.88-4.33L104.88-4.33L104.88-4.33Q107.84-4.33 109.55-5.47L109.55-5.47L109.55-5.47Q111.26-6.61 112.52-8.89L112.52-8.89L112.52-8.89Q115.94-15.05 118.67-33.74L118.67-33.74L118.67-33.74Q119.47-39.22 119.47-44.57L119.47-44.57L119.47-44.57Q119.47-49.93 118.28-51.64L118.28-51.64L118.28-51.64Q117.08-53.35 114.80-53.35L114.80-53.35L114.80-53.35Q107.84-53.35 105.56-39.79L105.56-39.79ZM204.17-47.42L204.17-47.42L204.17-47.42Q204.17-42.64 200.18-39.67L200.18-39.67L200.18-39.67Q196.19-36.71 189.70-36.71L189.70-36.71L189.70-36.71Q186.96-36.71 185.36-37.51L185.36-37.51L185.36-37.51Q186.62-40.47 187.02-44.18L187.02-44.18L187.02-44.18Q187.42-47.88 187.42-48.91L187.42-48.91L187.42-48.91Q187.42-53.69 184.11-53.69L184.11-53.69L184.11-53.69Q181.83-53.69 179.26-50.84L179.26-50.84L179.26-50.84Q176.70-47.99 174.53-43.55L174.53-43.55L174.53-43.55Q169.75-33.29 169.75-22.91L169.75-22.91L169.75-22.91Q169.75-17.21 171.91-14.65L171.91-14.65L171.91-14.65Q174.08-12.08 178.87-12.08L178.87-12.08L178.87-12.08Q185.48-12.08 190.72-17.56L190.72-17.56L190.72-17.56Q192.20-19.27 193.00-21.20L193.00-21.20L193.00-21.20Q197.33-18.92 197.33-12.65L197.33-12.65L197.33-12.65Q197.33-6.27 190.27-2.05L190.27-2.05L190.27-2.05Q182.97 2.28 171.34 2.28L171.34 2.28L171.34 2.28Q148.20 2.28 148.20-22.23L148.20-22.23L148.20-22.23Q148.20-40.13 158.35-50.39L158.35-50.39L158.35-50.39Q168.15-60.42 186.16-60.42L186.16-60.42L186.16-60.42Q204.17-60.42 204.17-47.42ZM232.10 2.28L232.10 2.28L232.10 2.28Q207.02 2.28 207.02-21.32L207.02-21.32L207.02-21.32Q207.02-38.08 216.26-48.91L216.26-48.91L216.26-48.91Q226.06-60.42 243.05-60.42L243.05-60.42L243.05-60.42Q255.36-60.42 261.63-54.72L261.63-54.72L261.63-54.72Q267.90-49.02 267.90-37.05L267.90-37.05L267.90-37.05Q267.90-18.81 258.10-8.21L258.10-8.21L258.10-8.21Q248.52 2.28 232.10 2.28ZM235.07-47.31L235.07-47.31L235.07-47.31Q233.70-44.23 232.62-39.62L232.62-39.62L232.62-39.62Q231.53-35.00 230.17-27.70L230.17-27.70L230.17-27.70Q228.80-20.41 228.80-11.40L228.80-11.40L228.80-11.40Q228.80-8.44 229.77-6.50L229.77-6.50L229.77-6.50Q230.74-4.56 233.36-4.56L233.36-4.56L233.36-4.56Q235.98-4.56 237.63-5.81L237.63-5.81L237.63-5.81Q239.29-7.07 240.54-10.03L240.54-10.03L240.54-10.03Q242.82-15.28 244.64-25.02L244.64-25.02L244.64-25.02Q246.47-34.77 246.64-38.99L246.64-38.99L246.64-38.99Q246.81-43.21 246.81-46.34L246.81-46.34L246.81-46.34Q246.81-49.48 245.90-51.53L245.90-51.53L245.90-51.53Q244.99-53.58 242.42-53.58L242.42-53.58L242.42-53.58Q239.86-53.58 238.15-51.98L238.15-51.98L238.15-51.98Q236.44-50.39 235.07-47.31ZM356.71 2.28L356.71 2.28L356.71 2.28Q342.91 2.28 342.91-8.44L342.91-8.44L342.91-8.44Q342.91-13.11 344.91-22.17L344.91-22.17L344.91-22.17Q346.90-31.24 347.59-34.88L347.59-34.88L347.59-34.88Q349.18-43.21 349.18-45.83L349.18-45.83L349.18-45.83Q349.18-51.64 344.85-51.64L344.85-51.64L344.85-51.64Q342-51.64 339.26-47.71L339.26-47.71L339.26-47.71Q336.53-43.78 335.27-35.91L335.27-35.91L328.21 0L305.98 2.28L312.13-28.73L312.13-28.73Q313.16-33.86 314.07-39.67L314.07-39.67L314.07-39.67Q314.98-45.49 314.98-46.40L314.98-46.40L314.98-46.40Q314.98-51.64 311.11-51.64L311.11-51.64L311.11-51.64Q308.48-51.64 305.63-47.77L305.63-47.77L305.63-47.77Q302.78-43.89 301.19-35.91L301.19-35.91L294.23 0L271.78 2.28L283.75-58.14L302.33-60.42L300.39-48.91L300.39-48.91Q303.35-55.06 308.83-57.74L308.83-57.74L308.83-57.74Q314.30-60.42 322.85-60.42L322.85-60.42L322.85-60.42Q327.75-60.42 330.94-58.03L330.94-58.03L330.94-58.03Q334.13-55.63 335.16-51.76L335.16-51.76L335.16-51.76Q337.10-55.75 342.06-58.08L342.06-58.08L342.06-58.08Q347.02-60.42 353.12-60.42L353.12-60.42L353.12-60.42Q359.21-60.42 362.24-59.11L362.24-59.11L362.24-59.11Q365.26-57.80 367.08-55.63L367.08-55.63L367.08-55.63Q370.16-51.64 370.16-44.35L370.16-44.35L370.16-44.35Q370.16-37.16 367.08-22.23L367.08-22.23L367.08-22.23Q365.48-14.93 365.48-12.26L365.48-12.26L365.48-12.26Q365.48-9.58 367.02-7.98L367.02-7.98L367.02-7.98Q368.56-6.38 370.84-6.16L370.84-6.16L370.84-6.16Q369.70-2.28 365.77 0L365.77 0L365.77 0Q361.84 2.28 356.71 2.28ZM406.98-6.27L406.98-6.27L406.98-6.27Q403.45 2.28 392.16 2.28L392.16 2.28L392.16 2.28Q386.35 2.28 382.70-1.71L382.70-1.71L382.70-1.71Q379.62-5.24 379.62-8.78L379.62-8.78L379.62-8.78Q379.62-18.01 383.84-36.02L383.84-36.02L388.06-58.14L411.20-60.42L404.24-24.40L404.24-24.40Q402.31-15.96 402.31-13.00L402.31-13.00L402.31-13.00Q402.31-6.50 406.98-6.27ZM390.11-73.99L390.11-73.99L390.11-73.99Q390.11-78.43 393.81-80.83L393.81-80.83L393.81-80.83Q397.52-83.22 402.88-83.22L402.88-83.22L402.88-83.22Q408.23-83.22 411.48-80.83L411.48-80.83L411.48-80.83Q414.73-78.43 414.73-73.99L414.73-73.99L414.73-73.99Q414.73-69.54 411.14-67.26L411.14-67.26L411.14-67.26Q407.55-64.98 402.19-64.98L402.19-64.98L402.19-64.98Q396.83-64.98 393.47-67.26L393.47-67.26L393.47-67.26Q390.11-69.54 390.11-73.99ZM464.89 2.28L464.89 2.28L464.89 2.28Q451.10 2.28 451.10-8.44L451.10-8.44L451.10-8.44Q451.21-11.40 452.12-16.42L452.12-16.42L454.18-26.90L454.18-26.90Q457.25-41.72 457.25-45.03L457.25-45.03L457.25-45.03Q457.25-51.64 453.38-51.64L453.38-51.64L453.38-51.64Q446.88-51.64 443.46-34.66L443.46-34.66L436.73 0L413.82 2.28L425.68-58.25L444.37-60.42L442.55-49.25L442.55-49.25Q447.91-60.42 464.32-60.42L464.32-60.42L464.32-60.42Q472.30-60.42 475.67-57.06L475.67-57.06L475.67-57.06Q479.03-53.69 479.03-46.17L479.03-46.17L479.03-46.17Q479.03-39.10 475.38-22.57L475.38-22.57L475.38-22.57Q473.67-15.16 473.67-12.37L473.67-12.37L473.67-12.37Q473.67-9.58 475.21-7.98L475.21-7.98L475.21-7.98Q476.75-6.38 479.03-6.16L479.03-6.16L479.03-6.16Q477.89-2.28 473.96 0L473.96 0L473.96 0Q470.02 2.28 464.89 2.28ZM496.24-47.65L496.24-47.65L496.24-47.65Q500.12-53.12 505.99-56.77L505.99-56.77L505.99-56.77Q511.86-60.42 519.04-60.42L519.04-60.42L519.04-60.42Q526.22-60.42 529.64-58.14L529.64-58.14L551.99-60.42L544.24-16.64L544.24-16.64Q540.25 5.70 531.81 14.48L531.81 14.48L531.81 14.48Q523.72 22.80 507.98 22.80L507.98 22.80L507.98 22.80Q496.01 22.80 489.17 19.04L489.17 19.04L489.17 19.04Q482.33 15.28 482.33 9.01L482.33 9.01L482.33 9.01Q482.33 4.33 485.87 1.65L485.87 1.65L485.87 1.65Q489.40-1.03 494.87-1.03L494.87-1.03L494.87-1.03Q499.66-1.03 503.31 1.14L503.31 1.14L503.31 1.14Q505.48 2.28 506.50 3.88L506.50 3.88L506.50 3.88Q503.88 6.16 503.88 9.92L503.88 9.92L503.88 9.92Q503.88 14.82 508.44 14.82L508.44 14.82L508.44 14.82Q516.08 14.82 520.41-3.19L520.41-3.19L520.41-3.19Q521.66-8.09 522.69-13.00L522.69-13.00L522.69-13.00Q517.56-6.73 505.93-6.73L505.93-6.73L505.93-6.73Q497.84-6.73 493.16-10.60L493.16-10.60L493.16-10.60Q488.49-14.48 488.49-23.60L488.49-23.60L488.49-23.60Q488.49-29.30 490.43-35.74L490.43-35.74L490.43-35.74Q492.37-42.18 496.24-47.65ZM511.06-23.26L511.06-23.26L511.06-23.26Q511.06-15.50 515.05-15.50L515.05-15.50L515.05-15.50Q517.79-15.50 520.41-18.47L520.41-18.47L520.41-18.47Q522.46-20.86 523.26-24.40L523.26-24.40L529.07-53.69L529.07-53.69Q528.50-53.81 527.93-54.04L527.93-54.04L527.93-54.04Q526.79-54.49 525.31-54.49L525.31-54.49L525.31-54.49Q518.36-54.49 514.25-43.09L514.25-43.09L514.25-43.09Q511.06-34.20 511.06-23.26ZM589.04-55.52L589.04-55.52L589.04-55.52Q585.16-58.48 585.16-64.81L585.16-64.81L585.16-64.81Q585.16-71.14 589.32-74.44L589.32-74.44L589.32-74.44Q593.48-77.75 600.67-77.75L600.67-77.75L600.67-77.75Q605.23-77.75 616.06-76.15L616.06-76.15L623.81-75.01L623.81-75.01Q627.68-74.56 631.73-74.56L631.73-74.56L631.73-74.56Q635.78-74.56 638.51-76.27L638.51-76.27L638.51-76.27Q642.62-72.62 642.62-67.37L642.62-67.37L642.62-67.37Q642.62-62.13 637.94-58.37L637.94-58.37L637.94-58.37Q633.16-54.38 627.00-54.38L627.00-54.38L627.00-54.38Q624.04-54.38 619.25-55.18L619.25-55.18L619.25-55.18Q613.66-37.62 613.66-25.42L613.66-25.42L613.66-25.42Q613.66-13.22 619.82-6.84L619.82-6.84L619.82-6.84Q616.97-1.71 612.75 0.29L612.75 0.29L612.75 0.29Q608.53 2.28 602.21 2.28L602.21 2.28L602.21 2.28Q595.88 2.28 591.95-1.20L591.95-1.20L591.95-1.20Q588.01-4.67 588.01-11.86L588.01-11.86L588.01-11.86Q588.01-20.18 592.57-33.86L592.57-33.86L592.57-33.86Q597.13-47.42 603.97-57.80L603.97-57.80L603.97-57.80Q600.67-58.14 597.25-58.14L597.25-58.14L597.25-58.14Q590.18-58.14 589.04-55.52ZM658.58 2.28L658.58 2.28L658.58 2.28Q633.50 2.28 633.50-21.32L633.50-21.32L633.50-21.32Q633.50-38.08 642.73-48.91L642.73-48.91L642.73-48.91Q652.54-60.42 669.52-60.42L669.52-60.42L669.52-60.42Q681.83-60.42 688.10-54.72L688.10-54.72L688.10-54.72Q694.37-49.02 694.37-37.05L694.37-37.05L694.37-37.05Q694.37-18.81 684.57-8.21L684.57-8.21L684.57-8.21Q674.99 2.28 658.58 2.28ZM661.54-47.31L661.54-47.31L661.54-47.31Q660.17-44.23 659.09-39.62L659.09-39.62L659.09-39.62Q658.01-35.00 656.64-27.70L656.64-27.70L656.64-27.70Q655.27-20.41 655.27-11.40L655.27-11.40L655.27-11.40Q655.27-8.44 656.24-6.50L656.24-6.50L656.24-6.50Q657.21-4.56 659.83-4.56L659.83-4.56L659.83-4.56Q662.45-4.56 664.11-5.81L664.11-5.81L664.11-5.81Q665.76-7.07 667.01-10.03L667.01-10.03L667.01-10.03Q669.29-15.28 671.12-25.02L671.12-25.02L671.12-25.02Q672.94-34.77 673.11-38.99L673.11-38.99L673.11-38.99Q673.28-43.21 673.28-46.34L673.28-46.34L673.28-46.34Q673.28-49.48 672.37-51.53L672.37-51.53L672.37-51.53Q671.46-53.58 668.90-53.58L668.90-53.58L668.90-53.58Q666.33-53.58 664.62-51.98L664.62-51.98L664.62-51.98Q662.91-50.39 661.54-47.31ZM737.69-4.79L737.69-4.79L737.69-4.79Q732.22 2.28 718.66 2.28L718.66 2.28L718.66 2.28Q711.59 2.28 706.46-2.00L706.46-2.00L706.46-2.00Q701.33-6.27 701.33-12.43L701.33-12.43L701.33-12.43Q701.33-15.85 701.67-17.56L701.67-17.56L709.31-58.14L732.45-60.42L724.13-16.42L724.13-16.42Q723.67-13.91 723.67-12.43L723.67-12.43L723.67-12.43Q723.67-5.81 727.66-5.81L727.66-5.81L727.66-5.81Q732.11-5.81 735.30-11.86L735.30-11.86L735.30-11.86Q736.33-13.79 736.78-16.30L736.78-16.30L744.88-58.14L767.33-60.42L758.90-15.96L758.90-15.96Q758.56-14.25 758.56-12.43L758.56-12.43L758.56-12.43Q758.56-10.60 759.58-8.61L759.58-8.61L759.58-8.61Q760.61-6.61 763.91-6.16L763.91-6.16L763.91-6.16Q763.23-3.42 760.84-1.60L760.84-1.60L760.84-1.60Q755.82 2.28 750.41 2.28L750.41 2.28L750.41 2.28Q744.99 2.28 741.80 0.34L741.80 0.34L741.80 0.34Q738.61-1.60 737.69-4.79ZM809.17-32.03L809.17-32.03L809.17-32.03Q813.28-39.33 813.28-46.74L813.28-46.74L813.28-46.74Q813.28-51.64 809.74-51.64L809.74-51.64L809.74-51.64Q807.01-51.64 804.16-46.97L804.16-46.97L804.16-46.97Q801.19-42.29 800.28-36.25L800.28-36.25L794.35 0L770.75 2.28L782.38-58.14L801.19-60.42L799.14-48.91L799.14-48.91Q804.73-60.42 817.27-60.42L817.27-60.42L817.27-60.42Q823.88-60.42 827.47-57L827.47-57L827.47-57Q831.06-53.58 831.06-46.57L831.06-46.57L831.06-46.57Q831.06-39.56 826.44-35.11L826.44-35.11L826.44-35.11Q821.83-30.67 813.96-30.67L813.96-30.67L813.96-30.67Q810.54-30.67 809.17-32.03ZM866.97-40.01L866.97-40.01L866.97-40.01Q868.57-44.23 868.57-47.88L868.57-47.88L868.57-47.88Q868.57-54.61 863.09-54.61L863.09-54.61L863.09-54.61Q860.24-54.61 857.91-52.04L857.91-52.04L857.91-52.04Q855.57-49.48 855.57-46.28L855.57-46.28L855.57-46.28Q855.57-44.00 857.39-42.18L857.39-42.18L857.39-42.18Q860.02-39.67 866.74-35.57L866.74-35.57L866.74-35.57Q873.47-31.46 876.03-28.10L876.03-28.10L876.03-28.10Q878.60-24.74 878.60-20.12L878.60-20.12L878.60-20.12Q878.60-15.50 876.38-11.29L876.38-11.29L876.38-11.29Q874.15-7.07 870.16-4.10L870.16-4.10L870.16-4.10Q861.61 2.28 847.93 2.28L847.93 2.28L847.93 2.28Q840.52 2.28 834.82-1.60L834.82-1.60L834.82-1.60Q829.12-5.36 829.12-9.80L829.12-9.80L829.12-9.80Q829.12-14.25 832.37-16.87L832.37-16.87L832.37-16.87Q835.62-19.49 840.41-19.49L840.41-19.49L840.41-19.49Q845.20-19.49 848.16-17.67L848.16-17.67L848.16-17.67Q846.68-13.91 846.68-11.40L846.68-11.40L846.68-11.40Q846.68-3.88 853.06-3.88L853.06-3.88L853.06-3.88Q855.80-3.88 857.62-5.59L857.62-5.59L857.62-5.59Q859.45-7.30 859.45-10.26L859.45-10.26L859.45-10.26Q859.45-16.07 849.64-22.23L849.64-22.23L849.64-22.23Q841.66-27.47 839.84-29.53L839.84-29.53L839.84-29.53Q836.76-33.17 836.76-37.73L836.76-37.73L836.76-37.73Q836.76-42.29 838.93-46.63L838.93-46.63L838.93-46.63Q841.09-50.96 845.08-54.04L845.08-54.04L845.08-54.04Q853.40-60.42 867.88-60.42L867.88-60.42L867.88-60.42Q875.29-60.42 879.68-57.46L879.68-57.46L879.68-57.46Q884.07-54.49 884.07-49.48L884.07-49.48L884.07-49.48Q884.07-44.46 881.05-41.61L881.05-41.61L881.05-41.61Q878.03-38.76 872.56-38.76L872.56-38.76L872.56-38.76Q868.79-38.76 866.97-40.01Z" fill="url(#editing-shiny-gradient2)"></path></g></g><style>text {
  font-size: 64px;
  font-family: Arial Black;
  dominant-baseline: central;
  text-anchor: middle;
}</style></svg>